<svg fill="#16c1eb" id="Capa_1" enable-background="new 0 0 512 512" height="512" viewBox="0 0 512 512" width="512" xmlns="http://www.w3.org/2000/svg"><g><circle cx="256" cy="263.499" r="7.5"/><circle cx="226" cy="263.499" r="7.5"/><circle cx="286" cy="263.499" r="7.5"/><path d="m384.5 46h-257c-70.304 0-127.5 57.197-127.5 127.5v180c0 4.142 3.358 7.5 7.5 7.5s7.5-3.358 7.5-7.5v-120.054c21.488 40.164 63.853 67.554 112.5 67.554h257c48.647 0 91.012-27.39 112.5-67.554v178.317c0 21.635-17.602 39.237-39.236 39.237-13.149 0-25.354-6.532-32.648-17.472l-67.219-100.829c-6.972-10.457-18.636-16.699-31.203-16.699h-141.388c-12.567 0-24.231 6.243-31.202 16.699l-67.22 100.829c-7.293 10.94-19.498 17.472-32.647 17.472-21.635 0-39.237-17.602-39.237-39.237v-28.263c0-4.142-3.358-7.5-7.5-7.5s-7.5 3.358-7.5 7.5v28.263c0 29.906 24.331 54.237 54.237 54.237 18.176 0 35.046-9.028 45.127-24.151l67.22-100.829c4.183-6.274 11.181-10.02 18.721-10.02h18.195v22.5c0 4.142 3.358 7.5 7.5 7.5h90c4.143 0 7.5-3.358 7.5-7.5v-22.5h18.194c7.54 0 14.539 3.746 18.722 10.02l67.219 100.83c10.083 15.121 26.953 24.15 45.129 24.15 29.906 0 54.236-24.331 54.236-54.237v-238.263c0-70.303-57.196-127.5-127.5-127.5zm-91 300h-75v-15h75zm23.393-285-30 30h-61.787l-30-30zm67.607 225h-257c-62.033 0-112.5-50.467-112.5-112.5s50.467-112.5 112.5-112.5h46.394l42.803 42.803c1.406 1.407 3.314 2.197 5.303 2.197h68c1.989 0 3.896-.79 5.304-2.197l42.803-42.803h46.393c62.033 0 112.5 50.468 112.5 112.5 0 62.033-50.467 112.5-112.5 112.5z"/><path d="m127.5 76c-53.762 0-97.5 43.739-97.5 97.5s43.738 97.5 97.5 97.5 97.5-43.738 97.5-97.5-43.738-97.5-97.5-97.5zm0 180c-45.491 0-82.5-37.009-82.5-82.5s37.009-82.5 82.5-82.5 82.5 37.01 82.5 82.5-37.009 82.5-82.5 82.5z"/><path d="m184.538 198.533-25.033-25.033 25.033-25.033c2.417-2.417 2.894-6.162 1.16-9.108-5.78-9.819-14.007-18.084-23.793-23.904-2.949-1.753-6.712-1.283-9.137 1.143l-25.083 25.083-25.218-25.218c-2.417-2.417-6.162-2.894-9.108-1.16-9.818 5.779-18.084 14.007-23.904 23.792-1.754 2.949-1.283 6.711 1.143 9.137l25.268 25.268-25.268 25.268c-2.426 2.426-2.896 6.188-1.143 9.137 5.82 9.786 14.086 18.014 23.905 23.793 1.185.697 2.498 1.037 3.802 1.037 1.94 0 3.86-.751 5.306-2.197l25.218-25.218 25.083 25.083c2.426 2.426 6.189 2.897 9.137 1.143 9.786-5.82 18.014-14.086 23.793-23.904 1.733-2.947 1.256-6.692-1.161-9.109zm-25.518 16.908-26.031-26.031c-1.406-1.407-3.314-2.197-5.303-2.197s-3.897.79-5.303 2.197l-26.188 26.188c-4.025-3.003-7.612-6.571-10.635-10.579l26.216-26.216c1.407-1.406 2.197-3.314 2.197-5.303s-.79-3.897-2.197-5.303l-26.216-26.216c3.022-4.007 6.61-7.576 10.635-10.578l26.188 26.188c2.928 2.929 7.677 2.929 10.606 0l26.031-26.031c4.007 3.022 7.575 6.61 10.578 10.635l-26.002 26.003c-2.929 2.929-2.929 7.678 0 10.606l26.003 26.003c-3.003 4.024-6.572 7.612-10.579 10.634z"/><path d="m384.5 76c-53.762 0-97.5 43.738-97.5 97.5s43.738 97.5 97.5 97.5 97.5-43.738 97.5-97.5-43.738-97.5-97.5-97.5zm0 180c-45.49 0-82.5-37.009-82.5-82.5s37.01-82.5 82.5-82.5 82.5 37.01 82.5 82.5-37.01 82.5-82.5 82.5z"/><path d="m384.5 136c-20.678 0-37.5 16.822-37.5 37.5s16.822 37.5 37.5 37.5 37.5-16.822 37.5-37.5-16.822-37.5-37.5-37.5zm0 60c-12.406 0-22.5-10.093-22.5-22.5s10.094-22.5 22.5-22.5 22.5 10.093 22.5 22.5-10.094 22.5-22.5 22.5z"/><path d="m384.5 106c-37.22 0-67.5 30.28-67.5 67.5s30.28 67.5 67.5 67.5 67.5-30.28 67.5-67.5-30.28-67.5-67.5-67.5zm0 120c-28.948 0-52.5-23.551-52.5-52.5s23.552-52.5 52.5-52.5 52.5 23.551 52.5 52.5-23.552 52.5-52.5 52.5z"/></g></svg>