<svg id="Group_8" data-name="Group 8" xmlns="http://www.w3.org/2000/svg" xmlns:xlink="http://www.w3.org/1999/xlink" width="937.909" height="631.43" viewBox="0 0 937.909 631.43">
  <defs>
    <linearGradient id="linear-gradient" x1="0.175" y1="0.431" x2="0.886" y2="0.063" gradientUnits="objectBoundingBox">
      <stop offset="0" stop-color="#05abd7"/>
      <stop offset="1" stop-color="#64f1b7"/>
    </linearGradient>
  </defs>
  <g id="SvgjsG1617" transform="translate(358.918 0)">
    <path id="Path_162" data-name="Path 162" d="M144.1,655.729C16.493,655.729,0,570.937,0,496.97V239.888c0-39.439,9.346-89.225,18.578-127.177,6.882-28.332,12.7-47.4,23.581-56.224C80.439,28.5,131.548,24.3,212.673,24.3H375.867c153.645,0,203.124,57.731,203.124,235.433,0,235.433-119.791,218.294-306.423,218.294C269.965,591.684,256.076,655.729,144.1,655.729ZM375.867,86.541H212.673c-58.64,0-111.124-9.076-135.823,14.033C53.625,122.239,59.9,177.759,59.9,239.888V496.97c0,39.78,1.187,65.526,16.955,81.327,11.508,11.643,35.91,15.191,67.247,15.191,41.667,0,54.954-10.215,59.294-20.137,9.549-17.139,6.678-49.32,9.282-95.324-65.972,0-94.618-32.473-104.166-58.633-27.778-72.163,40.8-142.523,105.9-118.167,54.687,21.649,58.16,77.576,58.16,114.559,192.708,0,246.527,14.433,246.527-156.053,0-151.543-30.382-173.192-143.229-173.192Zm-211.805,309.4c6.076,15.335,28.646,19.845,48.611,19.845-.868-42.4-6.944-52.318-18.229-56.829C177.951,353.545,154.514,373.39,164.062,395.941Z" transform="translate(0 -24.3)" fill="url(#linear-gradient)"/>
  </g>
  <g id="SvgjsG2428" transform="translate(0 0.001)">
    <path id="Path_1" data-name="Path 1" d="M500.633,742.858c-68.555,0-139.817-9.922-139.817-132.6,0-61.339-15.335-61.339-28.865-61.339-31.571,0-47.808.9-61.339.9v60.437c0,93.812-36.082,132.6-133.5,132.6C73.065,742.858,0,723.915,0,610.258V246.735c0-85.694,26.159-135.306,137.11-135.306,112.755,0,133.5,43.3,133.5,135.306,0,54.122,11.727,57.731,41.494,57.731h48.71V246.735c0-37.7,7.527-65.11,20.958-86.651,25.315-40.707,73.727-48.656,117.956-48.656,93.812,0,131.7,41.494,131.7,135.306V610.258C631.429,725.719,568.286,742.858,500.633,742.858ZM270.613,487.58h61.339c91.106,0,91.106,92.008,91.106,122.678,0,62.241,13.531,70.359,77.576,70.359,55.927,0,68.555-5.412,68.555-70.359V246.735c0-57.731-11.727-73.065-69.457-73.065-33.61,0-53.279,4.472-65.526,19.284-8.094,9.64-11.148,27.226-11.148,53.782v57.731c36.984,0,81.184,6.314,102.833,52.318,30.669,69.457-33.376,149.739-110.049,116.363-54.122-21.649-55.025-83.89-55.025-106.441h-48.71c-92.91,0-103.735-69.457-103.735-119.971,0-24.355,0-52.318-9.922-62.241-6.314-7.216-27.061-10.824-61.339-10.824-33.376,0-53.22,4.51-59.535,12.629-7.216,8.118-15.335,27.061-15.335,60.437V610.258c0,50.514,9.922,70.359,74.869,70.359,31.571,0,51.416-8.118,59.535-16.237,8.118-7.216,11.727-25.257,11.727-54.123V549.821c-36.082-2.706-80.282-7.216-101.029-46.906C68.555,430.751,139.817,344.155,220.1,382.943c40.592,18.943,47.808,62.241,50.514,104.637ZM161.466,473.147c6.314,10.824,26.159,13.531,46.906,14.433-2.706-32.474-5.412-44.2-15.335-48.71-27.061-12.629-40.592,18.041-31.571,34.278ZM423.058,366.706c0,24.355,2.706,51.416,27.061,51.416,17.139,0,27.061-18.041,19.845-35.18C465.454,374.825,460.041,369.413,423.058,366.706Z" transform="translate(0 -111.429)" fill="url(#linear-gradient)"/>
  </g>
</svg>
