<svg fill="#16c1eb" id="Outline" height="512" viewBox="0 0 64 64" width="512" xmlns="http://www.w3.org/2000/svg"><g><path d="m61 52h-22c-.553 0-1 .448-1 1v2h-12v-2c0-.552-.447-1-1-1h-18v-27c0-.551.448-1 1-1h2c0 5.105 1.752 9.805 4.681 13.542l-3.128 1.564c-.339.169-.553.515-.553.894v2.184c-1.161.414-2 1.514-2 2.816 0 1.654 1.346 3 3 3s3-1.346 3-3c0-1.302-.839-2.402-2-2.816v-1.566l3.027-1.514c.979 1.035 2.056 1.974 3.218 2.804v2.276c-1.161.414-2 1.514-2 2.816 0 1.654 1.346 3 3 3s3-1.346 3-3c0-1.302-.839-2.402-2-2.816v-1.003c2.909 1.638 6.224 2.634 9.755 2.793v1.21c-1.161.414-2 1.514-2 2.816 0 1.654 1.346 3 3 3s3-1.346 3-3c0-1.302-.839-2.402-2-2.816v-1.21c3.631-.163 7.033-1.213 10-2.934v1.144c-1.161.414-2 1.514-2 2.816 0 1.654 1.346 3 3 3s3-1.346 3-3c0-1.302-.839-2.402-2-2.816v-2.451c1.069-.786 2.063-1.667 2.973-2.629l3.027 1.514v1.566c-1.161.414-2 1.514-2 2.816 0 1.654 1.346 3 3 3s3-1.346 3-3c0-1.302-.839-2.402-2-2.816v-2.184c0-.379-.214-.725-.553-.895l-3.128-1.564c2.929-3.736 4.681-8.436 4.681-13.541h2c.552 0 1 .449 1 1v24c0 .552.447 1 1 1s1-.448 1-1v-24c0-1.654-1.346-3-3-3h-2.095c-1.014-11.197-10.449-20-21.905-20-5.104 0-10.077 1.788-14.004 5.033-.426.352-.486.982-.134 1.408.351.425.98.486 1.407.134 3.571-2.95 8.091-4.575 12.731-4.575 11.028 0 20 8.972 20 20s-8.972 20-20 20-20-8.972-20-20c0-4.638 1.625-9.16 4.574-12.731.353-.426.292-1.056-.134-1.408-.428-.353-1.057-.292-1.407.134-2.82 3.413-4.535 7.615-4.938 12.004h-2.095c-1.654 0-3 1.346-3 3v27h-2c-.553 0-1 .448-1 1v4c0 2.757 2.243 5 5 5h30c.553 0 1-.448 1-1s-.447-1-1-1h-30c-1.654 0-3-1.346-3-3v-3h20v2c0 .552.447 1 1 1h14c.553 0 1-.448 1-1v-2h20v3c0 1.654-1.346 3-3 3h-16c-.553 0-1 .448-1 1s.447 1 1 1h16c2.757 0 5-2.243 5-5v-4c0-.551-.447-.999-1-.999zm-49-6c-.552 0-1-.449-1-1s.448-1 1-1 1 .449 1 1-.448 1-1 1zm8.245 2c-.552 0-1-.449-1-1s.448-1 1-1 1 .449 1 1-.448 1-1 1zm23.755 0c-.552 0-1-.449-1-1s.448-1 1-1 1 .449 1 1-.448 1-1 1zm8-2c-.552 0-1-.449-1-1s.448-1 1-1 1 .449 1 1-.448 1-1 1zm-20 5c-.552 0-1-.449-1-1s.448-1 1-1 1 .449 1 1-.448 1-1 1z"/><circle cx="52" cy="57" r="1"/><circle cx="56" cy="57" r="1"/><circle cx="8" cy="57" r="1"/><circle cx="12" cy="57" r="1"/><circle cx="19" cy="24" r="1"/><circle cx="45" cy="24" r="1"/><path d="m46.127 35.133c2.534-3.211 3.873-7.061 3.873-11.133 0-9.925-8.075-18-18-18s-18 8.075-18 18 8.075 18 18 18c4.072 0 7.922-1.339 11.133-3.873.434-.342.508-.971.166-1.405-.341-.433-.97-.507-1.404-.166-2.856 2.254-6.277 3.444-9.895 3.444-8.822 0-16-7.178-16-16s7.178-16 16-16 16 7.178 16 16c0 3.618-1.19 7.04-3.443 9.894-.342.434-.268 1.062.166 1.405.434.342 1.062.267 1.404-.166z"/><path d="m22.771 19.027c-.452.106-.771.509-.771.973v8c0 .552.447 1 1 1s1-.448 1-1v-3.764l2.105 4.211c.172.345.523.553.895.553.076 0 .153-.009.229-.027.452-.106.771-.509.771-.973v-8c0-.552-.447-1-1-1s-1 .448-1 1v3.764l-2.105-4.211c-.208-.415-.676-.633-1.124-.526z"/><path d="m35 21c.553 0 1-.448 1-1s-.447-1-1-1h-4c-.553 0-1 .448-1 1v8c0 .552.447 1 1 1s1-.448 1-1v-3h2c.553 0 1-.448 1-1s-.447-1-1-1h-2v-2z"/><path d="m41 29c.553 0 1-.448 1-1v-7h1c.553 0 1-.448 1-1s-.447-1-1-1h-4c-.553 0-1 .448-1 1s.447 1 1 1h1v7c0 .552.447 1 1 1z"/><path d="m37.999 17c.323 0 .641-.156.833-.445.307-.459.183-1.081-.277-1.387l-6-4c-.336-.224-.773-.224-1.109 0l-6 4c-.46.306-.584.927-.277 1.387.306.459.925.583 1.387.277l5.444-3.63 5.445 3.63c.171.114.364.168.554.168z"/><path d="m31.445 36.832c.168.112.362.168.555.168s.387-.056.555-.168l6-4c.46-.306.584-.927.277-1.387-.306-.459-.927-.584-1.387-.277l-5.445 3.63-5.445-3.63c-.462-.307-1.081-.182-1.387.277-.307.459-.183 1.081.277 1.387z"/></g></svg>